<svg width="24" height="24" viewBox="0 0 24 24"  xmlns="http://www.w3.org/2000/svg">
<path d="M17 7.49999V7L16.1715 7H7.83817C7.61715 7 7.40519 7.0878 7.24891 7.24408C7.09263 7.40036 7.00483 7.61232 7.00483 7.83334C7.00483 8.05435 7.09263 8.26631 7.24891 8.42259C7.40519 8.57887 7.61715 8.66667 7.83817 8.66667H14.1632L7.2465 15.575C7.16839 15.6525 7.1064 15.7446 7.06409 15.8462C7.02178 15.9477 7 16.0567 7 16.1667C7 16.2767 7.02178 16.3856 7.06409 16.4871C7.1064 16.5887 7.16839 16.6809 7.2465 16.7583C7.32397 16.8364 7.41614 16.8984 7.51768 16.9407C7.61923 16.9831 7.72816 17.0048 7.83817 17.0048C7.94818 17.0048 8.0571 16.9831 8.15865 16.9407C8.2602 16.8984 8.35236 16.8364 8.42983 16.7583L15.3382 9.84167V16.1667C15.3382 16.3877 15.426 16.5996 15.5822 16.7559C15.7385 16.9122 15.9505 17 16.1715 17C16.3925 17 16.6045 16.9122 16.7608 16.7559C16.917 16.5996 17.0048 16.3877 17.0048 16.1667V7.83334C17.0035 7.72444 17 7.49999 17 7.49999Z"/>
</svg>
