<svg width="40" height="40" viewBox="0 0 40 40" fill="none" xmlns="http://www.w3.org/2000/svg">

<path d="M11.8503 27.0666H27.8471C28.7151 27.0666 29.3972 26.3846 29.3972 25.5166L29.3971 24.9999C29.3971 24.2249 28.8081 23.5738 28.0642 23.4808C27.785 19.3887 24.5298 16.3712 20.4689 16.0611V15.3791H21.647C22.515 15.3791 23.197 14.6971 23.197 13.829V13.5501C23.197 12.682 22.515 12 21.647 12H18.0507C17.1827 12 16.5007 12.682 16.5007 13.5501V13.829C16.5007 14.6971 17.1827 15.3791 18.0507 15.3791H19.2289V16.0611C15.1677 16.3712 11.9125 19.3885 11.6025 23.4498C10.8584 23.5737 10.2695 24.1939 10.2695 24.9689L10.2696 25.4856C10.3005 26.3845 10.9823 27.0666 11.8503 27.0666ZM18.0506 14.1391C17.8647 14.1391 17.7405 14.0151 17.7405 13.829V13.55C17.7405 13.364 17.8644 13.2399 18.0506 13.2399H21.6157C21.8017 13.2399 21.9258 13.3638 21.9258 13.55V13.829C21.9258 14.0149 21.8019 14.1391 21.6157 14.1391H18.0506ZM19.8487 17.2703C23.5068 17.2703 26.514 19.8538 26.824 23.4189H12.8734C13.1835 19.8537 16.1907 17.2703 19.8487 17.2703ZM11.5403 25C11.5403 24.814 11.6642 24.6899 11.8504 24.6899H27.8782C28.0641 24.6899 28.1883 24.8138 28.1883 25L28.1883 25.5166C28.1883 25.7026 28.0644 25.8267 27.8782 25.8267H11.8504C11.6645 25.8267 11.5403 25.7028 11.5403 25.5166L11.5403 25Z" fill="#FFFF00"/>
    <rect width="40" height="40" rx="20" fill="#22211F" fill-opacity="0.2"/>
</svg>
