<svg width="24" height="24" viewBox="0 0 24 24" fill="none" xmlns="http://www.w3.org/2000/svg">
<path d="M3.85035 19.0666H19.8471C20.7151 19.0666 21.3972 18.3846 21.3972 17.5166L21.3971 16.9999C21.3971 16.2249 20.8081 15.5738 20.0642 15.4808C19.785 11.3887 16.5298 8.37115 12.4689 8.06114V7.37911H13.647C14.515 7.37911 15.197 6.69707 15.197 5.82903V5.55007C15.197 4.68203 14.515 4 13.647 4H10.0507C9.1827 4 8.50067 4.68203 8.50067 5.55007V5.82903C8.50067 6.69707 9.1827 7.37911 10.0507 7.37911H11.2289V8.06114C7.16772 8.37124 3.9125 11.3885 3.60248 15.4498C2.85839 15.5737 2.26953 16.1939 2.26953 16.9689L2.26955 17.4856C2.30048 18.3845 2.98231 19.0666 3.85035 19.0666ZM10.0506 6.13905C9.86466 6.13905 9.74053 6.01514 9.74053 5.82895V5.54999C9.74053 5.36401 9.86444 5.23989 10.0506 5.23989H13.6157C13.8017 5.23989 13.9258 5.3638 13.9258 5.54999V5.82895C13.9258 6.01493 13.8019 6.13905 13.6157 6.13905H10.0506ZM11.8487 9.27031C15.5068 9.27031 18.514 11.8538 18.824 15.4189H4.87337C5.18348 11.8537 8.19066 9.27031 11.8487 9.27031ZM3.54031 17C3.54031 16.814 3.66422 16.6899 3.85042 16.6899H19.8782C20.0641 16.6899 20.1883 16.8138 20.1883 17L20.1883 17.5166C20.1883 17.7026 20.0644 17.8267 19.8782 17.8267H3.85044C3.66446 17.8267 3.54033 17.7028 3.54033 17.5166L3.54031 17Z" fill="#FFF"/>
</svg>
