<svg width="24" height="24" viewBox="0 0 24 24" fill="none" xmlns="http://www.w3.org/2000/svg">
<path d="M10.591 12.0009L4.29558 18.287C4.10742 18.4752 4.00171 18.7304 4.00171 18.9965C4.00171 19.2627 4.10742 19.5179 4.29558 19.7061C4.48375 19.8943 4.73896 20 5.00507 20C5.27118 20 5.52639 19.8943 5.71455 19.7061L12 13.41L18.2854 19.7061C18.4736 19.8943 18.7288 20 18.9949 20C19.261 20 19.5162 19.8943 19.7044 19.7061C19.8926 19.5179 19.9983 19.2627 19.9983 18.9965C19.9983 18.7304 19.8926 18.4752 19.7044 18.287L13.409 12.0009L19.7044 5.71474C19.7981 5.62183 19.8724 5.5113 19.9231 5.38952C19.9739 5.26773 20 5.13711 20 5.00518C20 4.87325 19.9739 4.74262 19.9231 4.62084C19.8724 4.49905 19.7981 4.38852 19.7044 4.29562C19.6115 4.20195 19.501 4.1276 19.3792 4.07686C19.2575 4.02612 19.1268 4 18.9949 4C18.863 4 18.7324 4.02612 18.6106 4.07686C18.4889 4.1276 18.3783 4.20195 18.2854 4.29562L12 10.5917L5.71455 4.29562C5.62166 4.20195 5.51114 4.1276 5.38937 4.07686C5.2676 4.02612 5.13699 4 5.00507 4C4.87315 4 4.74254 4.02612 4.62077 4.07686C4.499 4.1276 4.38848 4.20195 4.29558 4.29562C4.20192 4.38852 4.12758 4.49905 4.07685 4.62084C4.02612 4.74262 4 4.87325 4 5.00518C4 5.13711 4.02612 5.26773 4.07685 5.38952C4.12758 5.5113 4.20192 5.62183 4.29558 5.71474L10.591 12.0009Z" fill="#22211F"/>
</svg>
