<svg width="24" height="24" viewBox="0 0 24 24" fill="none" xmlns="http://www.w3.org/2000/svg">
<path d="M18.3153 4.69242C18.0099 4.38108 17.6225 4.16255 17.1981 4.06211C16.7737 3.96166 16.3295 3.9834 15.9169 4.12481L4.60469 7.90621C4.14846 8.05555 3.74983 8.34283 3.46384 8.72839C3.17785 9.11396 3.01859 9.5788 3.00807 10.0587C2.99754 10.5387 3.13625 11.01 3.40506 11.4078C3.67387 11.8055 4.05951 12.11 4.50876 12.2792L8.69788 13.8781C8.79327 13.9146 8.88013 13.9703 8.95302 14.0419C9.02592 14.1134 9.08331 14.1991 9.12159 14.2938L10.7205 18.4909C10.8833 18.9338 11.1786 19.3158 11.5663 19.5847C11.954 19.8537 12.4152 19.9966 12.887 19.9939H12.943C13.4235 19.9852 13.8892 19.8263 14.2748 19.5396C14.6605 19.2528 14.9467 18.8526 15.0935 18.395L18.8749 7.06679C19.0124 6.65822 19.0329 6.21932 18.934 5.79972C18.8351 5.38013 18.6208 4.99657 18.3153 4.69242ZM17.3959 6.56313L13.5745 17.8994C13.5302 18.0428 13.441 18.1683 13.3202 18.2575C13.1994 18.3467 13.0532 18.3949 12.903 18.395C12.7537 18.3975 12.6072 18.3544 12.483 18.2716C12.3587 18.1888 12.2626 18.0701 12.2075 17.9313L10.6086 13.7342C10.4927 13.4292 10.3139 13.1521 10.0839 12.9207C9.85387 12.6893 9.57776 12.5089 9.27349 12.3911L5.07637 10.7922C4.93478 10.7403 4.81307 10.6453 4.72843 10.5205C4.6438 10.3957 4.60051 10.2474 4.60469 10.0967C4.60481 9.94653 4.65299 9.80032 4.74218 9.67949C4.83136 9.55866 4.95688 9.46954 5.10035 9.42517L16.4366 5.64376C16.5667 5.59072 16.7095 5.57651 16.8475 5.60285C16.9856 5.62919 17.113 5.69497 17.2145 5.79221C17.316 5.88946 17.3871 6.01401 17.4193 6.15082C17.4515 6.28763 17.4434 6.43084 17.3959 6.56313Z" fill="#22211F"/>
</svg>
