<svg width="40" height="40" viewBox="0 0 40 40" fill="#000000" xmlns="http://www.w3.org/2000/svg">
    <path d="M13.026 15.055L13.0558 15.0239C14.402 13.6483 16.5203 13.6588 17.8548 15.0552C17.8548 15.0552 17.8548 15.0552 17.8548 15.0552L19.2809 16.5476L20.0039 17.3042L20.7269 16.5476L22.1441 15.0644C22.1441 15.0644 22.1441 15.0644 22.1442 15.0644C23.4888 13.6575 25.6291 13.6576 26.9733 15.0643C28.3422 16.4971 28.3422 18.8172 26.9734 20.2497C25.3399 21.959 23.7064 23.6686 22.0729 25.3781C21.3806 26.1026 20.6883 26.8271 19.9961 27.5516L13.0268 20.2412L13.0267 20.241C11.658 18.8058 11.6578 16.4869 13.026 15.055Z" stroke="#FFFF00" stroke-width="2" fill-opacity="0"/>

    <rect width="40" height="40" rx="20" fill="#22211F" fill-opacity="0.2"/>


</svg>
