<svg width="24" height="24" viewBox="0 0 24 24" fill="none" xmlns="http://www.w3.org/2000/svg">
<path d="M5.02602 7.055L5.05578 7.02386C6.40203 5.64834 8.52033 5.65881 9.85476 7.05515C9.85477 7.05516 9.85477 7.05516 9.85478 7.05517L11.2809 8.54758L12.0039 9.30416L12.7269 8.54756L14.1441 7.06443C14.1441 7.06441 14.1441 7.06439 14.1442 7.06438C15.4888 5.65749 17.6291 5.65758 18.9733 7.06434C20.3422 8.49706 20.3422 10.8172 18.9734 12.2497C17.3399 13.959 15.7064 15.6686 14.0729 17.3781C13.3806 18.1026 12.6883 18.8271 11.9961 19.5516L5.02683 12.2412L5.02672 12.241C3.65798 10.8058 3.65777 8.4869 5.02602 7.055Z" stroke="#22211F" stroke-width="2"/>
</svg>
