<svg width="24" height="24" viewBox="0 0 24 24" fill="none" xmlns="http://www.w3.org/2000/svg">
<path d="M18.2 12.8333C18.0166 12.8333 17.825 12.775 17.6416 12.7333C17.2704 12.6515 16.9055 12.5429 16.55 12.4083C16.1634 12.2677 15.7384 12.275 15.3569 12.4288C14.9754 12.5827 14.6642 12.8722 14.4833 13.2416L14.3 13.6166C13.4883 13.1651 12.7424 12.6043 12.0833 11.95C11.4289 11.2908 10.8681 10.545 10.4166 9.7333L10.7666 9.49997C11.1361 9.31907 11.4256 9.00791 11.5795 8.62638C11.7333 8.24485 11.7406 7.8199 11.6 7.4333C11.4676 7.07699 11.3591 6.7123 11.275 6.34164C11.2333 6.1583 11.2 5.96664 11.175 5.77497C11.0738 5.18799 10.7663 4.65642 10.308 4.276C9.84964 3.89559 9.27054 3.69131 8.67496 3.69997H6.17496C5.81582 3.6966 5.46017 3.77065 5.13222 3.91708C4.80427 4.06351 4.51172 4.27888 4.27449 4.54854C4.03725 4.81819 3.86091 5.1358 3.75745 5.47973C3.654 5.82367 3.62586 6.18585 3.67496 6.54164C4.11891 10.0328 5.71332 13.2765 8.20634 15.7605C10.6994 18.2445 13.9489 19.8271 17.4416 20.2583H17.7583C18.3728 20.2592 18.9661 20.0337 19.425 19.625C19.6886 19.3892 19.8992 19.1001 20.0429 18.7769C20.1865 18.4537 20.2599 18.1037 20.2583 17.75V15.25C20.2481 14.6711 20.0373 14.1138 19.6619 13.673C19.2865 13.2323 18.7698 12.9355 18.2 12.8333ZM18.6166 17.8333C18.6165 17.9516 18.5911 18.0686 18.5423 18.1763C18.4934 18.2841 18.4222 18.3802 18.3333 18.4583C18.2402 18.5387 18.1313 18.5988 18.0136 18.6346C17.896 18.6705 17.7721 18.6814 17.65 18.6666C14.529 18.2665 11.6302 16.8387 9.41056 14.6085C7.19096 12.3784 5.77697 9.47275 5.39163 6.34997C5.37837 6.2279 5.38999 6.10441 5.4258 5.98696C5.4616 5.86951 5.52085 5.76054 5.59996 5.66664C5.67805 5.57775 5.77418 5.50651 5.88194 5.45765C5.98971 5.4088 6.10664 5.38345 6.22496 5.3833H8.72496C8.91875 5.37899 9.10798 5.44237 9.26008 5.56253C9.41218 5.68269 9.51764 5.85211 9.55829 6.04164C9.59163 6.26942 9.6333 6.49442 9.6833 6.71664C9.77956 7.15593 9.90768 7.58762 10.0666 8.00831L8.89996 8.54997C8.80021 8.59574 8.71048 8.66076 8.63593 8.7413C8.56137 8.82184 8.50346 8.91632 8.46552 9.0193C8.42758 9.12228 8.41035 9.23175 8.41483 9.34141C8.41932 9.45107 8.44541 9.55876 8.49163 9.6583C9.69096 12.2273 11.756 14.2923 14.325 15.4916C14.5278 15.575 14.7554 15.575 14.9583 15.4916C15.0622 15.4545 15.1577 15.397 15.2393 15.3226C15.3208 15.2482 15.3868 15.1584 15.4333 15.0583L15.95 13.8916C16.3808 14.0457 16.8204 14.1737 17.2666 14.275C17.4889 14.325 17.7139 14.3666 17.9416 14.4C18.1312 14.4406 18.3006 14.5461 18.4207 14.6982C18.5409 14.8503 18.6043 15.0395 18.6 15.2333L18.6166 17.8333Z" fill="#22211F"/>
</svg>
