<svg width="24" height="24" viewBox="0 0 24 24" fill="none" xmlns="http://www.w3.org/2000/svg">
<path d="M12.1644 20.2325C12.3675 20.159 12.5519 20.0418 12.7046 19.8891C12.8573 19.7364 12.9746 19.5519 13.0481 19.3489C13.1207 19.1499 13.1541 18.9387 13.1462 18.7271L12.1644 20.2325ZM12.1644 20.2325C11.9686 20.3191 11.7568 20.3638 11.5426 20.3638C11.3285 20.3638 11.1167 20.3191 10.9208 20.2325M12.1644 20.2325H10.9208M10.9208 20.2325C10.7177 20.159 10.5333 20.0418 10.3806 19.8891C10.2279 19.7364 10.1107 19.5519 10.0372 19.3489M10.9208 20.2325L10.0372 19.3489M10.0372 19.3489C9.94558 19.1547 9.90075 18.9417 9.90628 18.7271L10.0372 19.3489ZM11.5106 6.92268C11.1608 6.92141 10.8169 7.01253 10.5136 7.18683C10.2102 7.36123 9.95817 7.61273 9.78317 7.91586L9.77952 7.92217L9.77615 7.92862C9.69573 8.08234 9.58505 8.21821 9.45076 8.32805C9.31648 8.43789 9.16136 8.51944 8.99474 8.56777C8.82813 8.61611 8.65345 8.63024 8.48123 8.60932C8.30901 8.5884 8.1428 8.53286 7.9926 8.44604C7.8424 8.35922 7.71131 8.24292 7.60723 8.10412C7.50314 7.96533 7.42821 7.80691 7.38693 7.6384C7.34566 7.4699 7.3389 7.29478 7.36706 7.1236C7.39521 6.95241 7.45771 6.78869 7.55078 6.64228L7.55478 6.63598L7.55851 6.62951C7.9589 5.93602 8.53488 5.36023 9.2285 4.96006C9.92176 4.56011 10.7081 4.34971 11.5084 4.35C12.5771 4.35858 13.6089 4.74236 14.4234 5.4343C15.2383 6.12652 15.7839 7.08311 15.965 8.13685C16.146 9.1906 15.951 10.2745 15.4139 11.199C14.8768 12.1235 14.0319 12.8298 13.0269 13.1945L12.7962 13.2782V13.5235V13.818C12.7962 14.1592 12.6607 14.4864 12.4195 14.7276C12.1782 14.9689 11.8511 15.1044 11.5099 15.1044C11.1687 15.1044 10.8415 14.9689 10.6003 14.7276C10.3591 14.4864 10.2236 14.1592 10.2236 13.818V12.1817C10.2236 11.8405 10.3591 11.5134 10.6003 11.2721C10.8415 11.0309 11.1687 10.8954 11.5099 10.8954C12.0367 10.8954 12.5419 10.6861 12.9144 10.3136C13.287 9.94107 13.4962 9.43583 13.4962 8.90902C13.4962 8.38221 13.287 7.87698 12.9144 7.50447C12.5421 7.13213 12.0372 6.92288 11.5106 6.92268ZM11.5106 6.92268C11.5108 6.92268 11.5111 6.92268 11.5113 6.92269L11.5099 7.27268V6.92268C11.5101 6.92268 11.5104 6.92268 11.5106 6.92268ZM12.4232 17.8117L12.6717 17.5653L12.4232 17.8117C12.5424 17.9319 12.6367 18.0745 12.7008 18.2312C12.7648 18.3879 12.7972 18.5558 12.7962 18.725L12.7962 18.7325L12.7965 18.74C12.8026 18.9064 12.7764 19.0724 12.7193 19.2288L12.7189 19.2298C12.6629 19.3846 12.5735 19.5252 12.4571 19.6416C12.3407 19.758 12.2001 19.8474 12.0453 19.9034L12.034 19.9075L12.0229 19.9124C11.8716 19.9792 11.708 20.0138 11.5426 20.0138C11.3772 20.0138 11.2136 19.9792 11.0623 19.9124L11.0513 19.9075L11.0399 19.9034C10.8851 19.8474 10.7445 19.758 10.6281 19.6416C10.5117 19.5252 10.4223 19.3846 10.3663 19.2298L10.3607 19.2144L10.3537 19.1996C10.2855 19.0548 10.252 18.8961 10.2562 18.7361L10.2566 18.7187L10.2553 18.7013C10.249 18.6157 10.2486 18.5297 10.2541 18.4439C10.2665 18.3814 10.2875 18.3208 10.3164 18.2639L10.3275 18.2421L10.3355 18.219C10.3609 18.145 10.3959 18.0746 10.4397 18.0097C10.4898 17.9388 10.5441 17.8708 10.6021 17.8062C10.7205 17.6882 10.8608 17.5945 11.0152 17.5302L10.9008 17.2556L11.0152 17.5302C11.1719 17.4649 11.3401 17.4312 11.5099 17.4312C11.6797 17.4312 11.8478 17.4649 12.0046 17.5302L12.1392 17.2071L12.0046 17.5302C12.1613 17.5955 12.3036 17.6912 12.4232 17.8117Z" fill="#F7F6F2" stroke="#373634" stroke-width="0.7"/>
</svg>
