<svg xmlns="http://www.w3.org/2000/svg" width="40" height="40" viewBox="0 0 40 40">
    <path d="M20,0h0A20,20,0,0,1,40,20h0A20,20,0,0,1,20,40h0A20,20,0,0,1,0,20H0A20,20,0,0,1,20,0Z" transform="translate(0 0)" style="fill:#22211f" />
    <path d="M12.67,26.94h16a1.53,1.53,0,0,0,1.55-1.55v-.51a1.53,1.53,0,0,0-1.33-1.52,8,8,0,0,0-7.6-7.42v-.69h1.18A1.53,1.53,0,0,0,24,13.7v-.27a1.53,1.53,0,0,0-1.55-1.55h-3.6a1.53,1.53,0,0,0-1.55,1.55v.27a1.53,1.53,0,0,0,1.55,1.55h1.18v.69a8.08,8.08,0,0,0-7.63,7.39,1.55,1.55,0,0,0-1.33,1.51v.52A1.58,1.58,0,0,0,12.67,26.94ZM18.87,14a.29.29,0,0,1-.31-.31v-.27a.29.29,0,0,1,.31-.31h3.57a.29.29,0,0,1,.31.31v.27a.29.29,0,0,1-.31.31Zm1.8,3.14a6.8,6.8,0,0,1,7,6.14H13.69A6.81,6.81,0,0,1,20.67,17.15Zm-8.31,7.73a.29.29,0,0,1,.31-.31h16a.29.29,0,0,1,.31.31v.51a.29.29,0,0,1-.31.31h-16a.29.29,0,0,1-.31-.31Z" transform="translate(0 0)" style="fill:#f7f6f2" />
</svg>
