<svg width="40" height="40" viewBox="0 0 40 40" fill="none" xmlns="http://www.w3.org/2000/svg">
<rect width="40" height="40" rx="20" fill="#EEEBE6"/>
<mask id="path-2-inside-1_202_9578" fill="white">
<path d="M11.8503 27.0666H27.8471C28.7151 27.0666 29.3972 26.3846 29.3972 25.5166L29.3971 24.9999C29.3971 24.2249 28.8081 23.5738 28.0642 23.4808C27.785 19.3887 24.5298 16.3712 20.4689 16.0611V15.3791H21.647C22.515 15.3791 23.197 14.6971 23.197 13.829V13.5501C23.197 12.682 22.515 12 21.647 12H18.0507C17.1827 12 16.5007 12.682 16.5007 13.5501V13.829C16.5007 14.6971 17.1827 15.3791 18.0507 15.3791H19.2289V16.0611C15.1677 16.3712 11.9125 19.3885 11.6025 23.4498C10.8584 23.5737 10.2695 24.1939 10.2695 24.9689L10.2696 25.4856C10.3005 26.3845 10.9823 27.0666 11.8503 27.0666ZM18.0506 14.1391C17.8647 14.1391 17.7405 14.0151 17.7405 13.829V13.55C17.7405 13.364 17.8644 13.2399 18.0506 13.2399H21.6157C21.8017 13.2399 21.9258 13.3638 21.9258 13.55V13.829C21.9258 14.0149 21.8019 14.1391 21.6157 14.1391H18.0506ZM19.8487 17.2703C23.5068 17.2703 26.514 19.8538 26.824 23.4189H12.8734C13.1835 19.8537 16.1907 17.2703 19.8487 17.2703ZM11.5403 25C11.5403 24.814 11.6642 24.6899 11.8504 24.6899H27.8782C28.0641 24.6899 28.1883 24.8138 28.1883 25L28.1883 25.5166C28.1883 25.7026 28.0644 25.8267 27.8782 25.8267H11.8504C11.6645 25.8267 11.5403 25.7028 11.5403 25.5166L11.5403 25Z"/>
</mask>
<path d="M11.8503 27.0666H27.8471C28.7151 27.0666 29.3972 26.3846 29.3972 25.5166L29.3971 24.9999C29.3971 24.2249 28.8081 23.5738 28.0642 23.4808C27.785 19.3887 24.5298 16.3712 20.4689 16.0611V15.3791H21.647C22.515 15.3791 23.197 14.6971 23.197 13.829V13.5501C23.197 12.682 22.515 12 21.647 12H18.0507C17.1827 12 16.5007 12.682 16.5007 13.5501V13.829C16.5007 14.6971 17.1827 15.3791 18.0507 15.3791H19.2289V16.0611C15.1677 16.3712 11.9125 19.3885 11.6025 23.4498C10.8584 23.5737 10.2695 24.1939 10.2695 24.9689L10.2696 25.4856C10.3005 26.3845 10.9823 27.0666 11.8503 27.0666ZM18.0506 14.1391C17.8647 14.1391 17.7405 14.0151 17.7405 13.829V13.55C17.7405 13.364 17.8644 13.2399 18.0506 13.2399H21.6157C21.8017 13.2399 21.9258 13.3638 21.9258 13.55V13.829C21.9258 14.0149 21.8019 14.1391 21.6157 14.1391H18.0506ZM19.8487 17.2703C23.5068 17.2703 26.514 19.8538 26.824 23.4189H12.8734C13.1835 19.8537 16.1907 17.2703 19.8487 17.2703ZM11.5403 25C11.5403 24.814 11.6642 24.6899 11.8504 24.6899H27.8782C28.0641 24.6899 28.1883 24.8138 28.1883 25L28.1883 25.5166C28.1883 25.7026 28.0644 25.8267 27.8782 25.8267H11.8504C11.6645 25.8267 11.5403 25.7028 11.5403 25.5166L11.5403 25Z" fill="#22211F"/>
<path d="M29.3972 25.5166H30.6723V25.5165L29.3972 25.5166ZM29.3971 24.9999H28.122V25L29.3971 24.9999ZM28.0642 23.4808L26.792 23.5676L26.8635 24.6159L27.9061 24.7462L28.0642 23.4808ZM20.4689 16.0611H19.1937V17.2427L20.3718 17.3326L20.4689 16.0611ZM20.4689 15.3791V14.1039H19.1937V15.3791H20.4689ZM19.2289 15.3791H20.504V14.1039H19.2289V15.3791ZM19.2289 16.0611L19.3259 17.3326L20.504 17.2427V16.0611H19.2289ZM11.6025 23.4498L11.8119 24.7077L12.7979 24.5435L12.874 23.5469L11.6025 23.4498ZM10.2695 24.9689H8.99436V24.969L10.2695 24.9689ZM10.2696 25.4856L8.99438 25.4856L8.99438 25.5075L8.99513 25.5294L10.2696 25.4856ZM26.824 23.4189V24.6941H28.2149L28.0944 23.3085L26.824 23.4189ZM12.8734 23.4189L11.603 23.3084L11.4825 24.6941H12.8734V23.4189ZM11.5403 25H10.2651L10.2651 25.0001L11.5403 25ZM28.1883 25H26.9131V25.0001L28.1883 25ZM28.1883 25.5166H29.4634V25.5166L28.1883 25.5166ZM11.5403 25.5166H12.8155L12.8155 25.5166L11.5403 25.5166ZM11.8503 28.3418H27.8471V25.7915H11.8503V28.3418ZM27.8471 28.3418C29.4194 28.3418 30.6723 27.0889 30.6723 25.5166H28.122C28.122 25.6086 28.0885 25.6728 28.0459 25.7154C28.0033 25.758 27.9391 25.7915 27.8471 25.7915V28.3418ZM30.6723 25.5165L30.6723 24.9999L28.122 25L28.122 25.5166L30.6723 25.5165ZM30.6723 24.9999C30.6723 23.5782 29.6008 22.3877 28.2223 22.2155L27.9061 24.7462C27.9532 24.752 28.0087 24.7777 28.055 24.83C28.1001 24.8809 28.122 24.9406 28.122 24.9999H30.6723ZM29.3364 23.394C29.0106 18.6181 25.2052 15.1438 20.5659 14.7897L20.3718 17.3326C23.8544 17.5985 26.5594 20.1594 26.792 23.5676L29.3364 23.394ZM21.744 16.0611V15.3791H19.1937V16.0611H21.744ZM20.4689 16.6543H21.647V14.1039H20.4689V16.6543ZM21.647 16.6543C23.2193 16.6543 24.4722 15.4013 24.4722 13.829H21.9219C21.9219 13.921 21.8884 13.9853 21.8458 14.0279C21.8032 14.0705 21.7389 14.1039 21.647 14.1039V16.6543ZM24.4722 13.829V13.5501H21.9219V13.829H24.4722ZM24.4722 13.5501C24.4722 11.9778 23.2193 10.7248 21.647 10.7248V13.2752C21.7389 13.2752 21.8032 13.3086 21.8458 13.3512C21.8884 13.3938 21.9219 13.4581 21.9219 13.5501H24.4722ZM21.647 10.7248H18.0507V13.2752H21.647V10.7248ZM18.0507 10.7248C16.4784 10.7248 15.2255 11.9778 15.2255 13.5501H17.7758C17.7758 13.4581 17.8093 13.3938 17.8519 13.3512C17.8945 13.3086 17.9588 13.2752 18.0507 13.2752V10.7248ZM15.2255 13.5501V13.829H17.7758V13.5501H15.2255ZM15.2255 13.829C15.2255 15.4013 16.4784 16.6543 18.0507 16.6543V14.1039C17.9588 14.1039 17.8945 14.0705 17.8519 14.0279C17.8093 13.9853 17.7758 13.921 17.7758 13.829H15.2255ZM18.0507 16.6543H19.2289V14.1039H18.0507V16.6543ZM17.9537 15.3791V16.0611H20.504V15.3791H17.9537ZM19.1318 14.7897C14.4935 15.1438 10.6927 18.6145 10.331 23.3528L12.874 23.5469C13.1323 20.1625 15.8419 17.5986 19.3259 17.3326L19.1318 14.7897ZM11.393 22.192C10.0988 22.4075 8.99436 23.507 8.99436 24.9689H11.5447C11.5447 24.9149 11.5627 24.8652 11.6056 24.8174C11.6523 24.7654 11.7247 24.7222 11.8119 24.7077L11.393 22.192ZM8.99436 24.969L8.99438 25.4856L11.5447 25.4855L11.5447 24.9689L8.99436 24.969ZM8.99513 25.5294C9.04826 27.0738 10.2545 28.3418 11.8503 28.3418V25.7915C11.7608 25.7915 11.6959 25.7598 11.6478 25.7116C11.5983 25.6621 11.5486 25.5754 11.544 25.4417L8.99513 25.5294ZM18.0506 12.8639C18.2472 12.8639 18.5102 12.9349 18.7273 13.1519C18.9445 13.369 19.0157 13.6322 19.0157 13.829H16.4654C16.4654 14.2119 16.5986 14.6301 16.9244 14.9557C17.2501 15.2813 17.6681 15.4142 18.0506 15.4142V12.8639ZM19.0157 13.829V13.55H16.4654V13.829H19.0157ZM19.0157 13.55C19.0157 13.7465 18.9447 14.0095 18.7277 14.2267C18.5105 14.4439 18.2474 14.5151 18.0506 14.5151V11.9647C17.6677 11.9647 17.2495 12.098 16.9239 12.4237C16.5983 12.7494 16.4654 13.1675 16.4654 13.55H19.0157ZM18.0506 14.5151H21.6157V11.9647H18.0506V14.5151ZM21.6157 14.5151C21.4191 14.5151 21.1561 14.444 20.939 14.227C20.7218 14.0099 20.6506 13.7467 20.6506 13.55H23.201C23.201 13.167 23.0677 12.7488 22.7419 12.4232C22.4163 12.0977 21.9982 11.9647 21.6157 11.9647V14.5151ZM20.6506 13.55V13.829H23.201V13.55H20.6506ZM20.6506 13.829C20.6506 13.6324 20.7216 13.3694 20.9387 13.1523C21.1558 12.9351 21.4189 12.8639 21.6157 12.8639V15.4142C21.9986 15.4142 22.4168 15.281 22.7425 14.9552C23.068 14.6295 23.201 14.2115 23.201 13.829H20.6506ZM21.6157 12.8639H18.0506V15.4142H21.6157V12.8639ZM19.8487 18.5455C22.8999 18.5455 25.3055 20.6762 25.5536 23.5294L28.0944 23.3085C27.7225 19.0314 24.1137 15.9951 19.8487 15.9951V18.5455ZM26.824 22.1438H12.8734V24.6941H26.824V22.1438ZM14.1438 23.5294C14.3919 20.676 16.7976 18.5455 19.8487 18.5455V15.9951C15.5838 15.9951 11.975 19.0313 11.603 23.3084L14.1438 23.5294ZM12.8155 25C12.8155 25.1965 12.7445 25.4595 12.5274 25.6767C12.3103 25.8939 12.0472 25.9651 11.8504 25.9651V23.4147C11.4675 23.4147 11.0493 23.548 10.7236 23.8737C10.3981 24.1994 10.2651 24.6175 10.2651 25H12.8155ZM11.8504 25.9651H27.8782V23.4147H11.8504V25.9651ZM27.8782 25.9651C27.6816 25.9651 27.4186 25.8941 27.2015 25.677C26.9843 25.4599 26.9131 25.1967 26.9131 25H29.4634C29.4634 24.6171 29.3302 24.1988 29.0044 23.8732C28.6787 23.5477 28.2607 23.4147 27.8782 23.4147V25.9651ZM26.9131 25.0001L26.9131 25.5167L29.4634 25.5166L29.4634 24.9999L26.9131 25.0001ZM26.9131 25.5166C26.9131 25.3201 26.9841 25.0571 27.2011 24.84C27.4182 24.6227 27.6814 24.5516 27.8782 24.5516V27.1019C28.2611 27.1019 28.6793 26.9687 29.005 26.6429C29.3305 26.3172 29.4634 25.8992 29.4634 25.5166H26.9131ZM27.8782 24.5516H11.8504V27.1019H27.8782V24.5516ZM11.8504 24.5516C12.047 24.5516 12.31 24.6226 12.5271 24.8396C12.7443 25.0567 12.8155 25.3199 12.8155 25.5166H10.2652C10.2652 25.8996 10.3984 26.3178 10.7242 26.6434C11.0499 26.9689 11.4679 27.1019 11.8504 27.1019V24.5516ZM12.8155 25.5166L12.8155 24.9999L10.2651 25.0001L10.2652 25.5167L12.8155 25.5166Z" fill="#22211F" mask="url(#path-2-inside-1_202_9578)"/>
</svg>
