<svg width="24" height="24" viewBox="0 0 24 24" fill="none" xmlns="http://www.w3.org/2000/svg">
<path d="M17 13.6667C16.5076 13.6699 16.0221 13.7822 15.5783 13.9955C15.1346 14.2087 14.7435 14.5176 14.4333 14.9L10.1833 12.9417C10.3832 12.3298 10.3832 11.6702 10.1833 11.0583L14.4333 9.09999C14.9347 9.70497 15.6336 10.1134 16.4068 10.2532C17.18 10.393 17.9777 10.2552 18.6591 9.86408C19.3406 9.47298 19.862 8.85372 20.1313 8.11561C20.4006 7.3775 20.4005 6.56798 20.1311 5.82992C19.8616 5.09185 19.3401 4.4727 18.6586 4.08172C17.9771 3.69074 17.1793 3.55307 16.4062 3.69301C15.633 3.83296 14.9342 4.24151 14.4329 4.84657C13.9317 5.45163 13.6603 6.21431 13.6667 6.99999C13.6692 7.19852 13.6887 7.39647 13.725 7.59166L9.325 9.61666C8.8559 9.15798 8.26187 8.84792 7.61734 8.72535C6.97281 8.60278 6.30644 8.67313 5.70171 8.9276C5.09699 9.18207 4.58081 9.60934 4.21784 10.1559C3.85487 10.7024 3.66125 11.3439 3.66125 12C3.66125 12.6561 3.85487 13.2976 4.21784 13.8441C4.58081 14.3906 5.09699 14.8179 5.70171 15.0724C6.30644 15.3269 6.97281 15.3972 7.61734 15.2746C8.26187 15.1521 8.8559 14.842 9.325 14.3833L13.725 16.4083C13.6887 16.6035 13.6692 16.8015 13.6667 17C13.6667 17.6593 13.8622 18.3037 14.2284 18.8519C14.5947 19.4001 15.1153 19.8273 15.7244 20.0796C16.3335 20.3319 17.0037 20.3979 17.6503 20.2693C18.2969 20.1407 18.8909 19.8232 19.357 19.357C19.8232 18.8908 20.1407 18.2969 20.2693 17.6503C20.3979 17.0037 20.3319 16.3335 20.0796 15.7244C19.8273 15.1153 19.4001 14.5947 18.8519 14.2284C18.3037 13.8622 17.6593 13.6667 17 13.6667ZM17 5.33333C17.3296 5.33333 17.6519 5.43108 17.926 5.61421C18.2 5.79735 18.4137 6.05764 18.5398 6.36219C18.6659 6.66673 18.699 7.00184 18.6346 7.32514C18.5703 7.64845 18.4116 7.94542 18.1785 8.1785C17.9454 8.41159 17.6485 8.57033 17.3252 8.63464C17.0019 8.69894 16.6667 8.66594 16.3622 8.53979C16.0577 8.41365 15.7974 8.20003 15.6142 7.92594C15.4311 7.65186 15.3333 7.32963 15.3333 6.99999C15.3333 6.55797 15.5089 6.13404 15.8215 5.82148C16.1341 5.50892 16.558 5.33333 17 5.33333ZM7 13.6667C6.67037 13.6667 6.34813 13.5689 6.07405 13.3858C5.79997 13.2026 5.58635 12.9423 5.4602 12.6378C5.33406 12.3333 5.30105 11.9981 5.36536 11.6748C5.42967 11.3515 5.5884 11.0546 5.82149 10.8215C6.05458 10.5884 6.35155 10.4297 6.67485 10.3654C6.99815 10.301 7.33327 10.334 7.63781 10.4602C7.94235 10.5863 8.20265 10.8 8.38579 11.074C8.56892 11.3481 8.66667 11.6704 8.66667 12C8.66667 12.442 8.49108 12.8659 8.17851 13.1785C7.86595 13.4911 7.44203 13.6667 7 13.6667ZM17 18.6667C16.6704 18.6667 16.3481 18.5689 16.0741 18.3858C15.8 18.2026 15.5863 17.9423 15.4602 17.6378C15.3341 17.3333 15.3011 16.9981 15.3654 16.6748C15.4297 16.3515 15.5884 16.0546 15.8215 15.8215C16.0546 15.5884 16.3516 15.4297 16.6749 15.3654C16.9982 15.301 17.3333 15.334 17.6378 15.4602C17.9424 15.5863 18.2027 15.8 18.3858 16.074C18.5689 16.3481 18.6667 16.6704 18.6667 17C18.6667 17.442 18.4911 17.8659 18.1785 18.1785C17.866 18.4911 17.442 18.6667 17 18.6667Z" fill="#22211F"/>
</svg>
