<svg width="40" height="40" viewBox="0 0 40 40" fill="none" xmlns="http://www.w3.org/2000/svg">

    <path d="M25 15.9957H26C27.1045 15.9957 28 16.8912 28 17.9957V27.9955C28 29.1001 27.1045 29.9956 26 29.9956H14C12.8955 29.9956 12 29.1001 12 27.9955V17.9957C12 16.8912 12.8955 15.9957 14 15.9957H15C15.5523 15.9957 16.0001 16.4433 16.0001 16.9956C16.0001 17.5479 15.5523 17.9957 15 17.9957H14V27.9955H26V17.9957H25C24.4477 17.9957 23.9999 17.5479 23.9999 16.9956C23.9999 16.4433 24.4477 15.9957 25 15.9957ZM20.9999 12.4141V20.9958C20.9999 21.5481 20.5523 21.9957 20 21.9957C19.4477 21.9957 19.0001 21.5481 19.0001 20.9958V12.4141L17.8788 13.5355C17.4882 13.926 16.855 13.926 16.4645 13.5355C16.0739 13.1449 16.0739 12.5117 16.4645 12.1214L19.2929 9.2928C19.6834 8.9024 20.3166 8.9024 20.7071 9.2928L23.5355 12.1214C23.9261 12.5118 23.9261 13.1449 23.5355 13.5355C23.145 13.926 22.5118 13.926 22.1212 13.5355L20.9999 12.4141Z" fill="#FFFF00"/>
    <rect width="40" height="40" rx="20" fill="#22211F" fill-opacity="0.25"/>
</svg>
